<?xml version="1.0" standalone="no"?>
<svg version="1.0" xmlns="http://www.w3.org/2000/svg"
    width="318.000000pt" height="272.000000pt" viewBox="0 0 318.000000 272.000000"
    preserveAspectRatio="xMidYMid meet">

    <g transform="translate(0.000000,272.000000) scale(0.100000,-0.100000)"
        fill="currentColor" stroke="none">
        <path
            d="M896 2398 c-141 -27 -296 -150 -357 -283 -151 -334 89 -714 452 -715
148 0 267 50 367 154 99 102 142 212 142 355 -1 237 -165 437 -399 487 -74 15
-133 16 -205 2z m210 -153 c27 -8 58 -21 69 -29 19 -14 14 -21 -115 -151
l-135 -135 -2 -187 c-2 -102 -5 -188 -7 -190 -2 -3 -32 7 -65 22 -71 32 -151
112 -184 182 -18 39 -22 66 -22 148 0 89 3 105 27 151 15 28 39 66 55 84 33
40 117 95 164 108 52 15 160 14 215 -3z m219 -197 c32 -72 40 -135 25 -213
-25 -131 -133 -250 -252 -279 l-28 -6 0 162 0 163 112 112 c62 62 114 113 116
113 2 0 14 -24 27 -52z" />
        <path
            d="M2195 2401 c-11 -5 -73 -63 -137 -128 -100 -102 -118 -125 -118 -151
0 -41 31 -72 71 -72 23 0 43 13 85 51 l54 52 0 -147 c0 -180 10 -206 75 -206
65 0 75 26 75 206 l0 147 54 -52 c42 -38 62 -51 85 -51 40 0 71 31 71 72 0 27
-17 49 -122 154 -122 122 -153 142 -193 125z" />
        <path
            d="M2072 1629 c-46 -23 -72 -55 -90 -108 -8 -24 -12 -164 -12 -457 l0
-424 -70 0 -70 0 0 279 c0 224 -3 287 -15 322 -33 93 -84 119 -240 119 -134 0
-179 -17 -222 -81 l-28 -42 -3 -299 -3 -298 -70 0 -69 0 0 213 c0 237 -7 268
-69 320 -42 35 -89 47 -186 47 -97 0 -144 -12 -186 -47 -62 -52 -69 -83 -69
-320 l0 -213 -65 0 c-57 0 -69 -3 -92 -26 -24 -25 -25 -28 -22 -138 4 -126 19
-160 87 -207 l36 -24 961 0 961 0 36 24 c68 47 83 81 87 207 3 110 2 113 -22
138 -23 23 -35 26 -91 26 l-65 0 -3 438 c-3 494 -3 488 -81 540 -37 25 -50 27
-161 30 -107 3 -126 0 -164 -19z m256 -561 l2 -428 -105 0 -105 0 0 423 c0
233 3 427 7 431 4 4 50 5 103 4 l95 -3 3 -427z m-667 142 c18 -10 19 -24 19
-290 l0 -280 -105 0 -105 0 0 280 c0 255 1 280 18 289 22 14 148 14 173 1z
m-633 -357 l2 -213 -105 0 -105 0 0 208 c0 115 3 212 7 216 4 4 50 5 103 4
l95 -3 3 -212z m1480 -408 l-3 -50 -930 0 -930 0 -3 50 -3 50 936 0 936 0 -3
-50z" />
    </g>
</svg>