<svg xmlns="http://www.w3.org/2000/svg"
    width="24" height="24" viewBox="0 0 800 769"
    fill="currentColor">
    <g transform="translate(0,769) scale(0.1,-0.1)">
        <path
            d="M989 6747 c-65 -43 -84 -122 -44 -183 15 -23 167 -130 268 -189 41 -23 56 -27 99 -23 42 4 57 11 79 36 40 44 46 91 20 144 -17 36 -41 56 -152 128 -188 122 -208 129 -270 87z" />
        <path
            d="M5048 6311 c-122 -25 -147 -200 -35 -245 48 -20 364 -28 405 -10 106 44 87 214 -28 243 -49 13 -297 21 -342 12z" />
        <path
            d="M1704 6271 c-43 -26 -68 -90 -54 -140 14 -54 71 -101 256 -209 56 -34 80 -42 118 -42 43 0 53 4 87 39 33 33 39 45 39 82 0 60 -28 101 -97 142 -32 19 -98 60 -147 91 -100 63 -146 71 -202 37z" />
        <path
            d="M4365 6192 c-167 -58 -221 -86 -245 -124 -51 -83 11 -198 106 -198 18 0 72 15 120 34 49 19 122 44 162 56 58 18 78 29 99 57 46 60 32 147 -32 189 -45 30 -93 27 -210 -14z" />
        <path
            d="M5853 6160 c-97 -59 -75 -205 36 -241 20 -7 92 -36 160 -66 137 -61 166 -63 220 -17 40 33 55 81 42 132 -17 63 -50 85 -250 167 -121 50 -160 54 -208 25z" />
        <path
            d="M2497 5915 c-64 -33 -90 -104 -63 -169 26 -62 85 -85 310 -121 113 -18 146 -12 192 36 25 26 29 38 29 85 0 51 -3 58 -37 89 -22 21 -51 36 -75 40 -21 3 -95 17 -166 30 -149 29 -153 29 -190 10z" />
        <path
            d="M3635 5919 c-16 -5 -83 -18 -147 -29 -65 -10 -126 -23 -135 -29 -94 -50 -94 -185 1 -234 33 -17 44 -18 114 -8 42 6 124 21 182 33 89 18 110 26 137 53 42 42 51 92 27 142 -34 69 -101 96 -179 72z" />
        <path
            d="M6633 5776 c-66 -30 -94 -127 -55 -191 24 -39 307 -197 356 -198 77 -2 136 54 136 129 0 69 -25 94 -186 184 -157 87 -198 100 -251 76z" />
        <path
            d="M1454 5444 c-16 -8 -39 -29 -50 -47 -17 -29 -19 -55 -22 -289 l-3 -256 -114 -4 c-127 -3 -152 -14 -190 -79 -20 -33 -20 -52 -20 -904 l0 -870 22 -35 c12 -19 37 -44 55 -55 31 -19 51 -20 383 -20 333 0 352 1 385 20 21 12 44 39 58 65 l22 45 -2 867 c-3 858 -3 867 -24 894 -45 61 -66 69 -190 72 l-114 4 0 249 c0 278 -5 304 -62 339 -39 24 -91 25 -134 4z" />
        <path
            d="M3923 5385 c-18 -8 -42 -29 -53 -47 -18 -30 -20 -50 -20 -219 l0 -187 -114 -3 c-127 -4 -149 -14 -193 -79 l-23 -33 0 -872 0 -872 23 -34 c44 -66 77 -79 198 -79 l109 0 0 -187 c0 -169 2 -191 20 -220 38 -63 120 -81 181 -40 55 37 59 53 59 260 l0 187 102 0 c125 0 177 20 208 81 19 37 20 63 20 907 l0 869 -22 33 c-45 66 -67 75 -194 78 l-114 4 0 186 c0 211 -8 240 -75 268 -43 17 -71 17 -112 -1z" />
        <path
            d="M2682 4476 c-13 -7 -32 -26 -43 -42 -18 -27 -19 -49 -19 -341 l0 -313 -108 0 c-122 0 -161 -14 -199 -70 l-23 -33 0 -451 c0 -429 1 -453 20 -483 34 -57 62 -67 189 -73 l116 -5 5 -353 5 -354 37 -34 c62 -56 148 -45 195 25 23 34 23 36 23 377 l0 342 119 4 c134 3 158 13 192 78 18 32 19 66 19 476 0 441 0 441 -22 474 -45 66 -67 75 -194 78 l-114 4 0 304 c0 331 -1 340 -56 383 -31 24 -105 28 -142 7z m266 -1253 l2 -293 -200 0 -200 0 0 295 0 295 198 -2 197 -3 3 -292z" />
        <path
            d="M992 2294 c-34 -18 -72 -77 -72 -114 0 -60 26 -87 180 -190 128 -85 157 -100 191 -100 101 0 160 87 123 179 -15 37 -33 53 -163 138 -160 105 -198 118 -259 87z" />
        <path
            d="M5015 1842 c-70 -45 -92 -109 -60 -175 30 -63 72 -75 270 -78 152 -3 174 -1 203 16 60 36 79 119 42 180 -34 55 -68 64 -256 71 -156 5 -171 4 -199 -14z" />
        <path
            d="M1742 1833 c-32 -6 -88 -65 -95 -101 -7 -33 5 -85 25 -110 7 -8 60 -47 118 -85 184 -121 232 -137 297 -97 45 27 66 73 60 127 -5 51 -30 81 -96 120 -25 14 -86 52 -136 83 -89 57 -129 72 -173 63z" />
        <path
            d="M4328 1722 c-154 -55 -181 -70 -208 -115 -38 -61 -14 -144 51 -179 48 -26 63 -23 199 27 67 25 126 45 132 45 7 0 32 10 56 21 86 42 102 147 33 213 -50 48 -100 45 -263 -12z" />
        <path
            d="M5834 1687 c-30 -28 -37 -42 -41 -83 -8 -80 19 -109 152 -164 61 -26 130 -57 154 -69 61 -32 122 -30 166 3 62 48 68 142 12 193 -54 50 -299 153 -363 153 -36 0 -51 -6 -80 -33z" />
        <path
            d="M2484 1451 c-32 -20 -64 -74 -64 -111 0 -33 30 -89 56 -106 40 -27 271 -74 360 -74 101 0 160 89 120 183 -20 49 -56 66 -184 88 -64 11 -133 24 -152 29 -54 15 -102 12 -136 -9z" />
        <path
            d="M3625 1459 c-16 -5 -83 -18 -148 -29 -130 -22 -158 -35 -182 -87 -35 -72 5 -161 81 -182 49 -14 321 32 385 65 56 28 79 99 53 162 -28 71 -100 98 -189 71z" />
        <path
            d="M6624 1311 c-46 -28 -64 -59 -64 -109 0 -73 20 -93 179 -183 118 -66 156 -83 198 -87 51 -4 54 -3 93 36 35 34 40 46 40 84 0 75 -26 101 -195 195 -163 90 -195 98 -251 64z" />
    </g>
</svg>