<?xml version="1.0" standalone="no"?>
<svg version="1.0" xmlns="http://www.w3.org/2000/svg"
    width="463.000000pt" height="464.000000pt" viewBox="0 0 463.000000 464.000000"
    preserveAspectRatio="xMidYMid meet">

    <g transform="translate(0.000000,464.000000) scale(0.100000,-0.100000)"
        fill="currentColor" stroke="none">
        <path
            d="M2739 4105 c-59 -19 -141 -92 -169 -150 -13 -26 -29 -45 -38 -45 -26
-1 -101 -37 -136 -66 -42 -36 -93 -109 -101 -146 -4 -16 -12 -31 -19 -34 -6
-2 -171 39 -366 91 -549 147 -516 140 -543 122 -18 -12 -31 -48 -70 -193 -26
-99 -83 -314 -128 -479 -205 -765 -314 -1172 -351 -1313 -48 -179 -46 -198 17
-218 22 -7 120 -34 218 -60 l177 -47 0 -308 c0 -307 0 -308 22 -323 20 -14
137 -16 1055 -16 1020 0 1033 0 1053 20 20 20 20 33 20 1107 0 1049 1 1091 20
1163 24 93 25 113 2 133 -10 10 -124 45 -253 79 -129 34 -236 63 -238 64 -2 2
-1 14 3 28 4 16 24 34 59 54 101 57 151 142 151 257 1 117 -58 211 -165 266
-54 27 -159 34 -220 14z m181 -137 c58 -40 75 -72 75 -143 0 -71 -17 -103 -75
-142 -69 -47 -185 -20 -231 54 -49 79 -18 196 62 236 50 25 129 22 169 -5z
m-364 -240 c23 -69 110 -158 174 -178 62 -19 61 -18 49 -43 -24 -47 -74 -88
-126 -103 -48 -14 -58 -14 -107 0 -128 38 -184 187 -110 299 22 33 76 77 96
77 3 0 14 -24 24 -52z m-836 -53 c135 -36 316 -84 404 -108 105 -28 160 -47
163 -57 2 -8 13 -33 23 -55 l18 -41 -39 -42 c-46 -49 -52 -92 -17 -116 34 -24
55 -19 102 24 l43 40 49 -21 c105 -47 239 -32 328 36 26 19 51 35 56 35 13 0
423 -110 428 -115 4 -3 7 7 -203 -775 -81 -300 -161 -600 -179 -668 -18 -67
-35 -124 -37 -126 -2 -2 -78 16 -169 40 -91 24 -173 44 -183 44 -35 0 -53 -37
-97 -203 -30 -114 -49 -167 -58 -167 -8 0 -159 39 -335 86 -177 48 -494 132
-705 189 -210 56 -385 105 -388 108 -3 3 31 142 76 309 111 410 344 1283 416
1550 22 84 32 107 44 103 8 -2 125 -33 260 -70z m1540 -1825 l0 -800 -955 0
-955 0 0 240 c0 150 4 240 10 240 5 0 137 -34 292 -76 826 -221 757 -205 792
-187 84 43 483 277 500 293 12 12 35 78 61 177 249 932 244 913 251 913 2 0 4
-360 4 -800z m-602 -245 c39 -11 72 -22 72 -25 0 -7 -213 -131 -217 -126 -4 4
36 156 44 169 3 5 10 7 17 4 6 -2 44 -12 84 -22z" />
        <path
            d="M1528 3049 c-12 -6 -18 -22 -18 -43 0 -19 8 -40 18 -48 9 -9 127 -45
262 -81 135 -36 414 -111 621 -166 207 -56 385 -101 396 -101 39 0 68 61 45
97 -11 17 -39 26 -229 77 -92 24 -362 96 -600 160 -238 64 -442 116 -455 116
-13 0 -31 -5 -40 -11z" />
        <path
            d="M1461 2801 c-26 -26 -27 -62 -3 -83 9 -9 154 -53 322 -98 168 -45
445 -119 617 -166 171 -46 325 -84 342 -84 56 0 81 83 33 109 -9 5 -152 45
-317 89 -165 45 -435 117 -600 162 -368 99 -367 98 -394 71z" />
        <path
            d="M1402 2564 c-25 -17 -31 -74 -9 -92 14 -12 371 -112 398 -112 41 0
68 76 38 105 -12 12 -366 115 -394 115 -6 0 -21 -7 -33 -16z" />
        <path d="M2004 2385 c-21 -32 -11 -72 22 -87 58 -27 114 35 80 87 -23 35 -79
35 -102 0z" />
    </g>
</svg>