<svg width="24" height="24" viewBox="0 0 24 24" fill="currentColor"
    xmlns="http://www.w3.org/2000/svg">
    <g clip-path="url(#clip0_5397_24)">
        <path
            d="M17.4099 6.59L14.9999 5.5L17.4099 4.41L18.4999 2L19.5899 4.41L21.9999 5.5L19.5899 6.59L18.4999 9L17.4099 6.59ZM21.2799 12.72L20.4999 11L19.7199 12.72L17.9999 13.5L19.7199 14.28L20.4999 16L21.2799 14.28L22.9999 13.5L21.2799 12.72ZM16.2399 14.37L18.1799 15.84L15.6799 20.17L13.4399 19.23C13.2399 19.36 13.0199 19.49 12.7999 19.6L12.4999 22H7.49995L7.19995 19.59C6.97995 19.48 6.76995 19.36 6.55995 19.22L4.31995 20.16L1.81995 15.83L3.75995 14.36C3.74995 14.25 3.74995 14.12 3.74995 14C3.74995 13.88 3.74995 13.75 3.75995 13.63L1.81995 12.16L4.31995 7.83L6.55995 8.77C6.75995 8.64 6.97995 8.51 7.19995 8.4L7.49995 6H12.4999L12.7999 8.41C13.0199 8.52 13.2299 8.64 13.4399 8.78L15.6799 7.84L18.1799 12.17L16.2399 13.64C16.2499 13.76 16.2499 13.88 16.2499 14.01C16.2499 14.14 16.2499 14.25 16.2399 14.37ZM12.9999 14C12.9999 12.34 11.6599 11 9.99995 11C8.33995 11 6.99995 12.34 6.99995 14C6.99995 15.66 8.33995 17 9.99995 17C11.6599 17 12.9999 15.66 12.9999 14Z"
            fill="currentColor" />
    </g>
    <defs>
        <clipPath id="clip0_5397_24">
            <rect width="24" height="24" fill="white" />
        </clipPath>
    </defs>
</svg>