<?xml version="1.0" standalone="no"?>
<!DOCTYPE svg PUBLIC "-//W3C//DTD SVG 20010904//EN" "http://www.w3.org/TR/2001/REC-SVG-20010904/DTD/svg10.dtd">
<svg version="1.0" xmlns="http://www.w3.org/2000/svg"
    width="535.000000pt" height="452.000000pt" viewBox="0 0 535.000000 452.000000"
    preserveAspectRatio="xMidYMid meet">

    <g transform="translate(0.000000,452.000000) scale(0.100000,-0.100000)"
        fill="currentColor" stroke="none">
        <path d="M800 2935 l0 -1045 140 0 140 0 0 1045 0 1045 -140 0 -140 0 0 -1045z" />
        <path
            d="M2656 3804 c-16 -42 3 -44 283 -42 l266 3 0 25 0 25 -271 3 c-244 2
-272 1 -278 -14z" />
        <path
            d="M1399 2845 c-1 -509 -2 -931 -3 -937 -1 -10 34 -14 137 -16 l137 -3
0 941 0 940 -135 0 -135 0 -1 -925z" />
        <path
            d="M2534 3686 c-15 -12 -17 -18 -8 -33 11 -17 60 -18 1037 -21 1006 -2
1026 -2 1037 17 7 15 6 23 -6 35 -14 14 -121 16 -1028 16 -866 0 -1015 -2
-1032 -14z" />
        <path d="M1990 2770 l0 -880 140 0 140 0 0 880 0 880 -140 0 -140 0 0 -880z" />
        <path
            d="M2529 3554 c-9 -11 -10 -20 -2 -32 9 -15 35 -17 184 -20 193 -3 219
0 219 26 0 38 -18 42 -206 42 -153 0 -184 -2 -195 -16z" />
        <path
            d="M2590 2495 l0 -605 134 0 c130 0 134 1 140 23 3 12 6 284 6 605 l0
582 -140 0 -140 0 0 -605z" />
        <path
            d="M4480 2840 c-14 -5 -168 -43 -343 -85 l-319 -77 111 -113 c74 -75
109 -117 106 -127 -9 -22 -1204 -1072 -1224 -1076 -9 -1 -85 56 -169 128
l-154 130 -46 -34 c-26 -18 -188 -133 -360 -255 -244 -172 -317 -219 -330
-212 -10 5 -86 73 -171 150 l-153 141 -28 -24 c-16 -13 -164 -151 -329 -307
-197 -186 -299 -289 -297 -299 6 -20 77 -434 83 -488 3 -23 9 -42 13 -42 3 0
76 73 160 163 380 401 494 517 508 517 8 0 63 -47 120 -104 l106 -104 130 106
c72 59 232 189 354 289 231 189 257 203 285 162 8 -11 69 -76 136 -143 l120
-123 152 156 c614 630 1171 1191 1183 1191 6 0 59 -48 118 -107 59 -59 109
-105 112 -102 2 2 27 101 56 219 29 118 67 275 85 348 34 136 33 138 -15 122z" />
        <path
            d="M3190 2315 l0 -425 68 0 67 1 88 76 c70 61 87 81 87 103 0 16 -7 30
-15 34 -13 5 -15 50 -15 321 l0 315 -140 0 -140 0 0 -425z" />
        <path
            d="M1156 1584 c-160 -151 -206 -201 -204 -218 7 -48 38 -28 201 125 89
84 176 166 193 182 l31 28 129 -118 c201 -185 202 -185 225 -172 11 6 74 49
140 96 119 85 134 104 98 126 -13 8 -41 -7 -134 -72 l-117 -83 -21 20 c-12 10
-87 78 -166 151 -79 72 -149 131 -156 131 -6 0 -105 -88 -219 -196z" />
        <path
            d="M4205 1461 c-64 -28 -82 -114 -32 -157 19 -16 40 -24 67 -24 57 0 95
35 95 89 0 67 -71 117 -130 92z" />
        <path
            d="M3467 1412 c-20 -22 -22 -63 -5 -80 30 -30 98 -1 98 41 0 23 -35 57
-58 57 -11 0 -26 -8 -35 -18z" />
        <path
            d="M3592 1295 l-20 -23 51 -43 c29 -23 59 -49 68 -56 14 -12 19 -10 34
14 l18 27 -39 33 c-21 19 -51 42 -65 53 -26 19 -26 19 -47 -5z" />
        <path
            d="M3090 1013 l-303 -298 -142 149 c-105 109 -147 147 -159 143 -29 -11
-756 -610 -756 -622 0 -7 7 -18 16 -26 13 -10 19 -10 36 0 19 12 196 156 553
448 82 68 152 122 155 122 3 -1 66 -66 140 -144 84 -89 143 -143 155 -144 13
0 130 108 338 312 l318 312 -24 23 -24 23 -303 -298z" />
        <path
            d="M4023 1253 c-61 -45 -61 -46 -45 -69 9 -13 21 -24 25 -24 5 0 35 21
68 46 59 45 59 45 42 69 -10 14 -20 24 -23 24 -3 0 -33 -20 -67 -46z" />
        <path
            d="M3804 1168 c-12 -5 -27 -20 -32 -32 -37 -72 1 -146 75 -146 47 0 76
19 93 59 34 83 -53 160 -136 119z" />
    </g>
</svg>