<?xml version="1.0" standalone="no"?>
<svg version="1.0" xmlns="http://www.w3.org/2000/svg"
    width="423.000000pt" height="406.000000pt" viewBox="0 0 423.000000 406.000000"
    preserveAspectRatio="xMidYMid meet">

    <g transform="translate(0.000000,406.000000) scale(0.100000,-0.100000)"
        fill="#4bffb5" stroke="none">
        <path
            d="M1985 3364 c-91 -13 -230 -50 -305 -82 -346 -146 -594 -426 -697
-788 -26 -94 -28 -110 -28 -299 0 -188 2 -206 28 -304 34 -125 97 -263 168
-368 38 -56 184 -209 508 -535 250 -252 460 -458 466 -458 6 0 216 206 466
458 324 326 470 479 508 535 71 105 134 243 168 368 26 98 28 116 28 304 0
191 -1 204 -29 300 -107 367 -349 640 -696 787 -133 56 -252 80 -415 83 -77 2
-153 1 -170 -1z m317 -298 c341 -67 626 -341 704 -681 26 -110 26 -311 0 -419
-74 -320 -331 -580 -658 -668 -120 -32 -328 -32 -446 0 -170 46 -302 124 -423
249 -179 184 -255 372 -253 633 1 228 58 393 195 567 123 154 328 279 524 319
84 17 269 17 357 0z" />
        <path
            d="M2060 2696 l0 -73 -45 -18 c-57 -21 -99 -56 -133 -109 -23 -36 -27
-52 -27 -122 0 -71 3 -85 28 -122 37 -56 104 -103 210 -148 108 -46 157 -93
157 -153 0 -44 -26 -83 -70 -106 -46 -24 -145 -19 -215 11 -33 14 -67 26 -75
27 -17 2 -55 -94 -47 -117 9 -22 58 -45 140 -65 l72 -17 5 -70 5 -69 60 0 60
0 3 77 3 77 38 11 c127 34 208 173 181 307 -21 99 -80 155 -250 235 -100 47
-150 91 -150 131 0 33 37 86 68 98 41 17 160 6 211 -19 25 -12 47 -20 49 -17
3 2 15 31 28 62 22 54 23 59 7 70 -22 17 -89 40 -135 48 l-38 6 0 69 0 70 -70
0 -70 0 0 -74z" />
        <path
            d="M530 2623 c-279 -99 -302 -109 -288 -120 7 -5 44 -23 81 -38 59 -25
68 -32 63 -49 -3 -12 -15 -55 -26 -96 -26 -95 -36 -271 -21 -367 33 -214 164
-434 342 -576 76 -62 240 -157 269 -157 6 0 -12 20 -41 45 -202 172 -291 411
-261 698 10 102 53 281 71 300 5 4 43 -8 87 -27 43 -19 80 -33 82 -32 1 2 -4
19 -12 37 -9 19 -32 77 -52 129 -92 243 -120 310 -129 309 -5 0 -80 -25 -165
-56z" />
        <path
            d="M3338 2629 c60 -49 137 -143 179 -219 76 -137 104 -299 85 -483 -10
-103 -53 -281 -71 -300 -5 -4 -33 3 -64 17 -71 33 -107 47 -107 41 0 -2 7 -19
15 -37 8 -18 31 -76 50 -128 54 -142 118 -304 121 -309 5 -6 474 163 474 171
0 4 -10 10 -22 14 -12 3 -50 19 -85 35 l-62 28 19 44 c34 77 53 219 46 347 -6
127 -18 178 -66 293 -86 206 -252 381 -466 491 -92 47 -109 46 -46 -5z" />
    </g>
</svg>